###########  Thx Hive - CM8 Doing It Right The First Time  ###########


Flight.2012.DVDSCR.NO.WATERMARKS.XVID.AC3.HQ.Hive-CM8


Source: DVD9 - thx DRs

Video.: 720x304 @bitrate 1700 2pass
Audio.: English AC3 5.1 @448
Sample: Yes, included


IMDb..: http://www.imdb.com/title/tt1907668/


ENCODE
DVD had great quality just a lot of property watermarks inside, for security reasons
i removed them all in hrs work, to protect the owner of the dvd. Just before i was
done last night bigkats decided to do a quick encode with them still inside.
What a pity, nowadays security doesnt mean a lot just to get hits.
Anyway this one is clean now, all cuts have been hidden so you
wont see a thing where they have been.

For the video did the usual, sharpness, brightness and denoise
Movie is nice
Enjoy


General
Complete name                  : Flight.2012.DVDSCR.NO.WATERMARKS.XVID.AC3.HQ.Hive-CM8.avi
Format                         : AVI
Format/Info                    : Audio Video Interleave
Format profile                 : OpenDML
Format settings                : rec
File size                      : 2.08 GiB
Duration                       : 2h 18mn
Overall bit rate               : 2 148 Kbps
Writing application            : AVI-Mux GUI 1.17.7, Aug  8 2006  20:59:17

Video
ID                             : 0
Format                         : MPEG-4 Visual
Format profile                 : Advanced Simple@L5
Format settings, BVOP          : 2
Format settings, QPel          : Yes
Format settings, GMC           : No warppoints
Format settings, Matrix        : Default (H.263)
Muxing mode                    : Packed bitstream
Codec ID                       : XVID
Codec ID/Hint                  : XviD
Duration                       : 2h 18mn
Bit rate                       : 1 695 Kbps
Width                          : 720 pixels
Height                         : 304 pixels
Display aspect ratio           : 2.35:1
Frame rate                     : 23.976 fps
Color space                    : YUV
Chroma subsampling             : 4:2:0
Bit depth                      : 8 bits
Scan type                      : Progressive
Compression mode               : Lossy
Bits/(Pixel*Frame)             : 0.323
Stream size                    : 1.64 GiB (79%)
Writing library                : XviD 1.2.1 (UTC 2008-12-04)

Audio
ID                             : 1
Format                         : AC-3
Format/Info                    : Audio Coding 3
Mode extension                 : CM (complete main)
Format settings, Endianness    : Big
Codec ID                       : 2000
Duration                       : 2h 18mn
Bit rate mode                  : Constant
Bit rate                       : 448 Kbps
Channel(s)                     : 6 channels
Channel positions              : Front: L C R, Side: L R, LFE
Sampling rate                  : 48.0 KHz
Bit depth                      : 16 bits
Compression mode               : Lossy
Stream size                    : 444 MiB (21%)
Alignment                      : Aligned on interleaves
Interleave, duration           : 64 ms (1.53 video frames)
Interleave, preload duration   : 192 ms


PLOT
An airline pilot saves a flight from crashing, but an investigation
into the malfunctions reveals something troubling.


CAST
Denzel Washington  ...    Whip Whitaker
Kelly Reilly       ...    Nicole
John Goodman       ...    Harling Mays
Bruce Greenwood    ...    Charlie Anderson


GREETZ
ViSiON,SPK,SceneLovers,PRESTiGE,SANTi,3LT0N,YanKeeS,COPYxRIGHT,THC,T0XiC
D2U,LKRG,ADTRG,Feel-Free,KoDeKinG,FLAWL3SS,WBZ,BHRG,26K,NOVA,MAGNET
Unevano,BigVik,Rapeseed,SAFC,goldadvance,KaN1vE,Pinnz,Wayne,TED
SeeN,jtr,Limey,ICONiK,4PlayHD,THEDEN-RG,eXceSs,AKS74u,HiGH
Mr Hive,and most P2P groups
Great Work Guys!

LOOKING FOR ANYTHING YOU WANT TO LOOK AND SOUND BETTER

CM8@hushmail.com


Poster:

 
http://imgon.net/di-CWIV.jpg


Screenshots:

 
http://imgon.net/di-LASE.jpg


ENJOY and SEED!